<svg xmlns="http://www.w3.org/2000/svg" width="290" height="280" stroke="#000" stroke-linecap="round" stroke-linejoin="round" fill="#fff" fill-rule="evenodd"><g stroke="none"><path d="M212.53 172.256l-41.464-7.086-14.255-39.167 41.464 7.086 14.255 39.167" fill="#ffe082"/><path d="M145.312 141.557l41.473 7.082-27.218 32.084-41.464-7.086 27.209-32.081" fill="#ffd54f"/><path d="M186.777 148.646l14.255 39.167-27.209 32.081-14.255-39.167 27.209-32.081" fill="#ffc107"/><path d="M173.83 219.896l-41.464-7.086-14.255-39.166 41.464 7.086 14.255 39.167" fill="#ffecb3"/><path d="M101.862 192.167l41.473 7.083-27.218 32.084-41.464-7.086 27.209-32.081" fill="#ffca28"/><path d="M143.327 199.257l14.255 39.166-27.209 32.081-14.255-39.166 27.209-32.081" fill="#ffa000"/><path d="M130.37 270.506l-41.464-7.086-14.255-39.167 41.464 7.086 14.255 39.167" fill="#ffe082"/><path d="M80.472 130.437l41.473 7.083-27.218 32.084-41.464-7.086 27.209-32.081" fill="#ffca28"/><path d="M121.937 137.527l14.255 39.166-27.209 32.081-14.255-39.166 27.209-32.081" fill="#ffb300"/><path d="M108.99 208.776l-41.464-7.086-14.255-39.167 41.464 7.086 14.255 39.167" fill="#ffecb3"/><path d="M59.092 71.687l41.473 7.083-27.218 32.084-41.464-7.086 27.209-32.081" fill="#ffca28"/><path d="M100.557 78.777l14.255 39.166-27.209 32.081-14.255-39.166 27.209-32.081" fill="#ffc107"/><path d="M87.6 150.026l-41.464-7.086-14.255-39.167 41.464 7.086L87.6 150.026" fill="#ffecb3"/><path d="M37.712 12.937l41.473 7.083-27.218 32.084-41.464-7.086 27.209-32.081" fill="#ffc107"/><path d="M79.177 20.027l14.255 39.166-27.209 32.081-14.255-39.166 27.209-32.081" fill="#ffa000"/><path d="M66.22 91.276L24.756 84.19 10.5 45.024l41.464 7.086L66.22 91.276" fill="#ffe082"/><path d="M98.182 20.417l41.473 7.083-27.218 32.084-41.464-7.086 27.209-32.081" fill="#ffca28"/><path d="M139.657 27.507l14.255 39.166-27.209 32.081-14.255-39.166 27.209-32.081" fill="#ffb300"/><path d="M126.7 98.756L85.236 91.67 70.98 52.504l41.464 7.086L126.7 98.756" fill="#ffecb3"/><path d="M160.802 28.687l41.473 7.083-27.218 32.084-41.464-7.086 27.209-32.081" fill="#ffca28"/><path d="M202.267 35.777l14.255 39.166-27.209 32.081-14.255-39.166 27.209-32.081" fill="#ffc107"/><path d="M189.32 107.026l-41.464-7.086L133.6 60.774l41.464 7.086 14.255 39.167" fill="#ffe082"/><path d="M225.692 43.177l41.473 7.083-27.218 32.084-41.464-7.086 27.209-32.081" fill="#ffd54f"/><path d="M267.167 50.267l14.255 39.166-27.209 32.081-14.255-39.166 27.209-32.081" fill="#ffa000"/><path d="M254.21 121.506l-41.464-7.086-14.255-39.167 41.464 7.086 14.255 39.167" fill="#ffe082"/><path d="M184.012 93.917l41.473 7.083-27.218 32.084-41.464-7.086 27.209-32.081" fill="#ffd54f"/><path d="M225.487 101.007l14.255 39.166-27.209 32.081-14.255-39.166 27.209-32.081" fill="#ffb300"/></g></svg>