<svg width="725.488" height="105.957" viewBox="0 0 725.488 105.957" xmlns="http://www.w3.org/2000/svg"><g id="svgGroup" stroke-linecap="round" fill-rule="evenodd" font-size="9pt" stroke="#ffea00" stroke-width="0" fill="#cfcfcf" style="stroke:#ffea00;stroke-width:0;fill:#cfcfcf"><path d="M 128.76 67.236 L 128.76 17.969 A 16.227 16.227 0 0 1 129.17 14.275 A 14.548 14.548 0 0 1 129.492 13.11 A 14.84 14.84 0 0 1 130.527 10.651 A 12.232 12.232 0 0 1 131.47 9.155 A 9.948 9.948 0 0 1 133.283 7.26 A 8.799 8.799 0 0 1 134.375 6.519 A 7.047 7.047 0 0 1 137.94 5.566 L 177.002 5.566 L 177.002 13.818 L 140.43 13.818 L 140.43 71.143 L 165.527 71.143 L 165.527 36.426 L 177.1 36.426 L 177.002 85.254 A 15.658 15.658 0 0 1 176.498 89.265 A 14.457 14.457 0 0 1 176.294 89.966 Q 175.586 92.188 174.365 93.872 A 9.824 9.824 0 0 1 172.396 95.919 A 8.926 8.926 0 0 1 171.485 96.533 A 6.826 6.826 0 0 1 167.969 97.51 L 165.527 97.51 L 165.527 79.541 L 137.94 79.541 A 6.912 6.912 0 0 1 134.375 78.565 A 9.744 9.744 0 0 1 131.788 76.332 A 11.305 11.305 0 0 1 131.47 75.928 A 12.536 12.536 0 0 1 130.014 73.4 A 15.425 15.425 0 0 1 129.492 72.022 A 15.12 15.12 0 0 1 128.771 67.867 A 17.236 17.236 0 0 1 128.76 67.236 Z M 227.93 79.541 L 227.93 5.518 L 239.502 5.518 L 239.502 23.438 L 257.715 9.18 Q 258.594 8.447 259.473 7.788 A 14.53 14.53 0 0 1 261.304 6.616 Q 262.256 6.104 263.306 5.811 A 7.981 7.981 0 0 1 264.83 5.546 A 9.543 9.543 0 0 1 265.576 5.518 Q 267.481 5.518 269.141 6.372 A 9.011 9.011 0 0 1 271.958 8.657 A 10.327 10.327 0 0 1 272.046 8.765 A 11.243 11.243 0 0 1 273.638 11.435 A 13.391 13.391 0 0 1 273.999 12.378 A 13.398 13.398 0 0 1 274.682 15.96 A 15.596 15.596 0 0 1 274.707 16.846 L 274.707 71.143 L 285.694 71.143 Q 285.498 72.9 284.741 74.414 Q 283.985 75.928 282.837 77.075 A 8.738 8.738 0 0 1 280.225 78.882 A 7.413 7.413 0 0 1 277.149 79.541 L 271.875 79.541 A 6.912 6.912 0 0 1 268.311 78.565 A 9.744 9.744 0 0 1 265.723 76.332 A 11.305 11.305 0 0 1 265.405 75.928 Q 264.16 74.268 263.452 72.022 A 15.577 15.577 0 0 1 262.757 67.906 A 17.807 17.807 0 0 1 262.744 67.236 L 262.744 15.332 L 239.502 33.447 L 239.502 79.541 L 227.93 79.541 Z M 78.516 71.191 L 96.436 71.191 L 96.436 59.326 L 70.85 46.582 A 11.144 11.144 0 0 1 66.273 42.323 A 13.324 13.324 0 0 1 66.162 42.139 A 12.065 12.065 0 0 1 64.797 38.59 Q 64.466 37.094 64.414 35.365 A 21.66 21.66 0 0 1 64.404 34.717 L 64.404 17.92 A 16.795 16.795 0 0 1 64.786 14.29 A 14.96 14.96 0 0 1 65.112 13.062 A 14.322 14.322 0 0 1 66.141 10.576 A 11.868 11.868 0 0 1 67.066 9.107 A 9.948 9.948 0 0 1 68.879 7.211 A 8.799 8.799 0 0 1 69.971 6.47 A 7.047 7.047 0 0 1 73.535 5.518 L 100.537 5.518 A 7.047 7.047 0 0 1 104.102 6.47 A 9.212 9.212 0 0 1 106.525 8.501 A 10.917 10.917 0 0 1 107.007 9.107 A 12.808 12.808 0 0 1 108.463 11.667 A 15.764 15.764 0 0 1 108.985 13.062 Q 109.717 15.332 109.717 17.92 L 109.717 32.373 L 98.047 32.373 L 98.047 13.867 L 76.074 13.867 L 76.074 37.012 L 102.539 50.537 A 7.773 7.773 0 0 1 104.64 52.089 A 8.918 8.918 0 0 1 104.834 52.295 A 10.845 10.845 0 0 1 106.304 54.356 A 12.551 12.551 0 0 1 106.592 54.907 A 13.636 13.636 0 0 1 107.468 57.212 A 16.151 16.151 0 0 1 107.715 58.203 A 17.696 17.696 0 0 1 108.105 61.841 A 19.456 19.456 0 0 1 108.106 61.963 L 108.106 67.236 A 15.676 15.676 0 0 1 107.641 71.097 A 14.304 14.304 0 0 1 107.373 72.022 A 14.52 14.52 0 0 1 106.339 74.453 A 11.976 11.976 0 0 1 105.396 75.928 A 10.2 10.2 0 0 1 103.343 77.998 A 9.307 9.307 0 0 1 102.49 78.565 A 6.912 6.912 0 0 1 98.926 79.541 L 69.971 79.541 Q 70.166 77.832 70.923 76.318 Q 71.68 74.805 72.827 73.657 A 8.738 8.738 0 0 1 75.44 71.851 A 7.413 7.413 0 0 1 78.516 71.191 Z M 18.994 71.191 L 33.35 71.191 L 33.35 13.77 L 11.67 13.77 L 11.67 29.639 L 0 29.639 L 0 17.92 A 16.227 16.227 0 0 1 0.41 14.226 A 14.548 14.548 0 0 1 0.733 13.062 A 14.373 14.373 0 0 1 1.792 10.572 A 11.981 11.981 0 0 1 2.735 9.107 A 10.292 10.292 0 0 1 4.521 7.249 A 8.987 8.987 0 0 1 5.664 6.47 A 7.047 7.047 0 0 1 9.229 5.518 L 55.078 5.518 L 55.078 13.77 L 44.971 13.77 L 44.971 67.188 A 15.676 15.676 0 0 1 44.506 71.048 A 14.304 14.304 0 0 1 44.238 71.973 A 14.26 14.26 0 0 1 43.113 74.561 A 12.09 12.09 0 0 1 42.236 75.903 A 10.557 10.557 0 0 1 40.402 77.809 A 9.318 9.318 0 0 1 39.307 78.565 A 6.912 6.912 0 0 1 35.742 79.541 L 10.449 79.541 Q 10.645 77.832 11.402 76.318 Q 12.158 74.805 13.306 73.657 A 8.738 8.738 0 0 1 15.918 71.851 A 7.413 7.413 0 0 1 18.994 71.191 Z M 358.692 79.541 L 358.692 23.047 L 370.41 23.047 L 370.41 28.418 L 407.227 28.418 A 9.828 9.828 0 0 1 406.275 31.665 Q 405.518 33.203 404.395 34.326 A 8.742 8.742 0 0 1 401.831 36.108 A 7.029 7.029 0 0 1 398.877 36.768 L 398.877 71.191 L 410.205 71.191 A 9.828 9.828 0 0 1 409.253 74.439 A 9.43 9.43 0 0 1 407.469 76.958 A 8.975 8.975 0 0 1 407.324 77.1 A 9.097 9.097 0 0 1 404.639 78.882 A 7.983 7.983 0 0 1 401.416 79.541 L 396.533 79.541 A 7.173 7.173 0 0 1 392.92 78.565 A 9.708 9.708 0 0 1 390.183 76.213 A 11.23 11.23 0 0 1 389.942 75.903 A 12.711 12.711 0 0 1 388.394 73.192 A 15.301 15.301 0 0 1 387.94 71.973 A 15.062 15.062 0 0 1 387.237 68.176 A 17.587 17.587 0 0 1 387.207 67.139 L 387.207 36.768 L 370.313 36.768 L 370.313 79.541 L 358.692 79.541 Z M 609.473 79.541 L 609.473 23.047 L 621.192 23.047 L 621.192 28.418 L 658.008 28.418 A 9.828 9.828 0 0 1 657.056 31.665 Q 656.299 33.203 655.176 34.326 A 8.742 8.742 0 0 1 652.612 36.108 A 7.029 7.029 0 0 1 649.658 36.768 L 649.658 71.191 L 660.986 71.191 A 9.828 9.828 0 0 1 660.034 74.439 A 9.43 9.43 0 0 1 658.25 76.958 A 8.975 8.975 0 0 1 658.106 77.1 A 9.097 9.097 0 0 1 655.42 78.882 A 7.983 7.983 0 0 1 652.197 79.541 L 647.315 79.541 A 7.173 7.173 0 0 1 643.701 78.565 A 9.708 9.708 0 0 1 640.965 76.213 A 11.23 11.23 0 0 1 640.723 75.903 A 12.711 12.711 0 0 1 639.175 73.192 A 15.301 15.301 0 0 1 638.721 71.973 A 15.062 15.062 0 0 1 638.019 68.176 A 17.587 17.587 0 0 1 637.988 67.139 L 637.988 36.768 L 621.094 36.768 L 621.094 79.541 L 609.473 79.541 Z M 422.315 79.541 L 422.315 28.418 L 433.985 28.418 L 433.985 47.754 L 449.072 32.129 Q 450.635 30.322 452.319 29.346 A 7.095 7.095 0 0 1 454.65 28.512 A 9.644 9.644 0 0 1 456.348 28.369 A 7.804 7.804 0 0 1 460.108 29.346 A 10.466 10.466 0 0 1 463.196 31.902 A 11.884 11.884 0 0 1 463.281 32.007 Q 464.649 33.691 465.454 35.938 Q 466.26 38.184 466.26 40.772 L 466.26 71.143 L 476.123 71.143 Q 475.928 72.9 475.171 74.414 Q 474.414 75.928 473.267 77.075 A 8.738 8.738 0 0 1 470.654 78.882 A 7.413 7.413 0 0 1 467.578 79.541 L 463.77 79.541 A 7.13 7.13 0 0 1 460.132 78.565 A 9.525 9.525 0 0 1 457.48 76.263 A 11.072 11.072 0 0 1 457.202 75.903 Q 455.957 74.219 455.225 71.973 A 15.062 15.062 0 0 1 454.523 68.176 A 17.587 17.587 0 0 1 454.492 67.139 L 454.492 37.451 L 433.985 58.545 L 433.985 79.541 L 422.315 79.541 Z M 671.729 67.139 L 671.729 40.82 A 16.158 16.158 0 0 1 672.091 37.35 A 14.234 14.234 0 0 1 672.461 35.986 A 14.744 14.744 0 0 1 673.544 33.458 A 12.353 12.353 0 0 1 674.439 32.056 A 9.712 9.712 0 0 1 676.765 29.788 A 9.13 9.13 0 0 1 677.393 29.395 A 7.173 7.173 0 0 1 681.006 28.418 L 715.186 28.418 L 715.186 71.191 L 725.488 71.191 A 9.828 9.828 0 0 1 724.536 74.439 A 9.799 9.799 0 0 1 723.015 76.701 A 9.079 9.079 0 0 1 722.632 77.1 A 8.967 8.967 0 0 1 720.02 78.882 A 7.413 7.413 0 0 1 716.944 79.541 L 715.186 79.541 L 715.186 93.457 A 16.227 16.227 0 0 1 714.776 97.151 A 14.548 14.548 0 0 1 714.453 98.316 A 14.373 14.373 0 0 1 713.394 100.805 A 11.981 11.981 0 0 1 712.451 102.271 A 10.811 10.811 0 0 1 710.521 104.264 A 9.659 9.659 0 0 1 709.522 104.956 Q 707.861 105.957 705.957 105.957 L 682.276 105.957 L 682.276 97.51 L 703.516 97.51 L 703.516 74.121 Q 702.1 76.66 700.049 78.101 A 8.176 8.176 0 0 1 697.949 79.181 A 6.869 6.869 0 0 1 695.752 79.541 L 681.006 79.541 A 7.173 7.173 0 0 1 677.393 78.565 Q 675.684 77.588 674.439 75.903 Q 673.194 74.219 672.461 71.973 A 15.062 15.062 0 0 1 671.759 68.176 A 17.587 17.587 0 0 1 671.729 67.139 Z M 296.436 67.139 L 296.436 28.418 L 308.106 28.418 L 308.106 71.191 L 328.272 71.191 L 328.272 28.418 L 339.893 28.418 L 339.893 71.191 L 349.805 71.191 A 9.828 9.828 0 0 1 348.853 74.439 A 9.799 9.799 0 0 1 347.331 76.701 A 9.079 9.079 0 0 1 346.948 77.1 A 8.967 8.967 0 0 1 344.336 78.882 A 7.413 7.413 0 0 1 341.26 79.541 L 332.08 79.541 L 328.272 73.34 A 11.35 11.35 0 0 1 326.904 75.855 A 9.494 9.494 0 0 1 325.363 77.534 A 8.713 8.713 0 0 1 325.025 77.808 A 9.523 9.523 0 0 1 323.183 78.924 A 8.736 8.736 0 0 1 322.827 79.077 A 6.552 6.552 0 0 1 321.594 79.446 A 5.293 5.293 0 0 1 320.606 79.541 L 305.713 79.541 A 7.173 7.173 0 0 1 302.1 78.565 Q 300.391 77.588 299.146 75.903 Q 297.901 74.219 297.168 71.973 A 15.062 15.062 0 0 1 296.466 68.176 A 17.587 17.587 0 0 1 296.436 67.139 Z M 484.961 79.541 L 484.961 1.856 L 496.582 1.856 L 496.582 34.082 A 13.374 13.374 0 0 1 498.12 31.726 A 10.555 10.555 0 0 1 500 29.932 A 7.719 7.719 0 0 1 502.521 28.678 A 7.135 7.135 0 0 1 504.444 28.418 L 519.19 28.418 A 6.912 6.912 0 0 1 522.754 29.395 A 9.777 9.777 0 0 1 525.194 31.449 A 11.556 11.556 0 0 1 525.684 32.056 A 12.711 12.711 0 0 1 527.231 34.767 A 15.301 15.301 0 0 1 527.686 35.986 A 15.062 15.062 0 0 1 528.388 39.783 A 17.587 17.587 0 0 1 528.418 40.82 L 528.418 71.191 L 538.721 71.191 A 9.828 9.828 0 0 1 537.769 74.439 A 9.799 9.799 0 0 1 536.247 76.701 A 9.079 9.079 0 0 1 535.864 77.1 A 8.967 8.967 0 0 1 533.252 78.882 A 7.413 7.413 0 0 1 530.176 79.541 L 504.444 79.541 A 7.301 7.301 0 0 1 500.04 78.063 A 8.886 8.886 0 0 1 500.025 78.052 A 11.475 11.475 0 0 1 497.628 75.645 A 14.572 14.572 0 0 1 496.582 74.024 L 496.582 79.541 L 484.961 79.541 Z M 547.217 67.139 L 547.217 40.82 A 16.158 16.158 0 0 1 547.579 37.35 A 14.234 14.234 0 0 1 547.949 35.986 A 14.744 14.744 0 0 1 549.032 33.458 A 12.353 12.353 0 0 1 549.927 32.056 A 9.712 9.712 0 0 1 552.253 29.788 A 9.13 9.13 0 0 1 552.881 29.395 A 7.173 7.173 0 0 1 556.494 28.418 L 582.422 28.418 A 7.042 7.042 0 0 1 586.011 29.395 A 9.746 9.746 0 0 1 588.6 31.596 A 11.393 11.393 0 0 1 588.965 32.056 A 12.711 12.711 0 0 1 590.512 34.767 A 15.301 15.301 0 0 1 590.967 35.986 A 15.062 15.062 0 0 1 591.669 39.783 A 17.587 17.587 0 0 1 591.699 40.82 L 591.699 57.08 L 558.887 57.08 L 558.887 71.191 L 594.727 71.191 A 9.828 9.828 0 0 1 593.775 74.439 A 9.799 9.799 0 0 1 592.253 76.701 A 9.079 9.079 0 0 1 591.87 77.1 A 8.967 8.967 0 0 1 589.258 78.882 A 7.413 7.413 0 0 1 586.182 79.541 L 556.494 79.541 A 7.173 7.173 0 0 1 552.881 78.565 Q 551.172 77.588 549.927 75.903 Q 548.682 74.219 547.949 71.973 A 15.062 15.062 0 0 1 547.247 68.176 A 17.587 17.587 0 0 1 547.217 67.139 Z M 496.582 71.191 L 516.797 71.191 L 516.797 36.768 L 496.582 36.768 L 496.582 71.191 Z M 683.35 71.191 L 703.516 71.191 L 703.516 36.768 L 683.35 36.768 L 683.35 71.191 Z M 558.887 50.244 L 580.029 50.244 L 580.029 36.768 L 558.887 36.768 L 558.887 50.244 Z M 329.191 16.348 A 9.298 9.298 0 0 0 331.592 16.65 A 8.524 8.524 0 0 0 334.741 16.065 A 7.497 7.497 0 0 0 337.329 14.38 Q 338.428 13.281 339.063 11.792 A 7.605 7.605 0 0 0 339.508 10.367 A 9.339 9.339 0 0 0 339.697 8.447 A 9.943 9.943 0 0 0 339.682 7.889 A 8.501 8.501 0 0 0 339.063 5.103 Q 338.428 3.565 337.329 2.417 A 7.748 7.748 0 0 0 334.741 0.635 Q 333.252 0 331.592 0 A 9.552 9.552 0 0 0 331.265 0.006 A 8.281 8.281 0 0 0 328.32 0.635 Q 326.807 1.27 325.733 2.417 A 8.441 8.441 0 0 0 324.048 5.103 A 8.332 8.332 0 0 0 323.726 6.09 A 9.379 9.379 0 0 0 323.438 8.447 A 10.231 10.231 0 0 0 323.51 9.68 A 8.124 8.124 0 0 0 324.048 11.792 A 7.995 7.995 0 0 0 325.733 14.38 A 6.983 6.983 0 0 0 325.973 14.614 A 7.26 7.26 0 0 0 328.32 16.065 A 8.382 8.382 0 0 0 329.191 16.348 Z M 303.117 16.348 A 9.298 9.298 0 0 0 305.518 16.65 A 8.524 8.524 0 0 0 308.667 16.065 A 7.497 7.497 0 0 0 311.255 14.38 Q 312.354 13.281 312.988 11.792 A 7.605 7.605 0 0 0 313.433 10.367 A 9.339 9.339 0 0 0 313.623 8.447 A 9.943 9.943 0 0 0 313.608 7.889 A 8.501 8.501 0 0 0 312.988 5.103 Q 312.354 3.565 311.255 2.417 A 7.748 7.748 0 0 0 308.667 0.635 Q 307.178 0 305.518 0 A 9.552 9.552 0 0 0 305.19 0.006 A 8.281 8.281 0 0 0 302.246 0.635 Q 300.733 1.27 299.658 2.417 A 8.441 8.441 0 0 0 297.974 5.103 A 8.332 8.332 0 0 0 297.652 6.09 A 9.379 9.379 0 0 0 297.363 8.447 A 10.231 10.231 0 0 0 297.436 9.68 A 8.124 8.124 0 0 0 297.974 11.792 A 7.995 7.995 0 0 0 299.658 14.38 A 6.983 6.983 0 0 0 299.899 14.614 A 7.26 7.26 0 0 0 302.246 16.065 A 8.382 8.382 0 0 0 303.117 16.348 Z" vector-effect="non-scaling-stroke"/></g></svg>